<?xml version="1.0" encoding="UTF-8" standalone="no"?>
<svg
   width="612"
   height="612"
   viewBox="0 0 12240 12240"
   preserveAspectRatio="xMidYMid"
   version="1.1"
   id="svg4"
   sodipodi:docname="ring.svg"
   xmlns:inkscape="http://www.inkscape.org/namespaces/inkscape"
   xmlns:sodipodi="http://sodipodi.sourceforge.net/DTD/sodipodi-0.dtd"
   xmlns="http://www.w3.org/2000/svg"
   xmlns:svg="http://www.w3.org/2000/svg">
  <defs
     id="defs4" />
  <sodipodi:namedview
     id="namedview4"
     pagecolor="#ffffff"
     bordercolor="#000000"
     borderopacity="0.25"
     inkscape:showpageshadow="2"
     inkscape:pageopacity="0.0"
     inkscape:pagecheckerboard="0"
     inkscape:deskcolor="#d1d1d1" />
  <g
     fill="#000000"
     id="g3">
    <path
       d="m 4432,8559 c -223,-13 -458,-64 -687,-149 -27,-10 -61,-22 -75,-26 -67,-19 -242,-112 -400,-212 -327,-207 -644,-544 -793,-842 -12,-25 -27,-49 -34,-55 -15,-12 -100,-192 -109,-231 -3,-16 -12,-38 -19,-49 -12,-20 -27,-63 -65,-185 -37,-120 -79,-364 -91,-525 -12,-160 -7,-295 21,-535 10,-87 58,-295 84,-366 8,-21 28,-76 44,-121 17,-46 37,-90 46,-98 9,-9 16,-26 16,-38 0,-46 177,-359 258,-458 6,-8 45,-54 85,-104 293,-356 685,-628 1101,-764 163,-54 234,-71 426,-103 169,-28 503,-30 665,-4 61,10 137,21 170,26 74,10 198,41 205,51 3,4 23,10 45,14 70,13 216,70 355,140 196,98 250,132 250,159 0,15 -38,60 -122,141 -124,122 -228,238 -248,275 -16,29 -35,25 -141,-26 -248,-121 -474,-180 -734,-191 -250,-10 -532,33 -707,107 -39,17 -77,29 -84,26 -7,-3 -23,3 -36,12 -13,10 -52,33 -88,51 -117,61 -261,158 -356,241 -22,19 -51,44 -65,56 -111,96 -280,313 -367,474 -89,164 -152,343 -193,552 -30,147 -33,448 -7,603 34,202 116,435 213,608 28,49 57,100 65,115 76,137 412,469 539,534 19,10 39,25 44,33 4,8 15,15 24,15 9,0 44,16 79,35 189,106 355,159 629,201 142,22 390,15 553,-16 440,-81 840,-323 1118,-675 21,-27 42,-51 47,-53 4,-2 7,-8 7,-13 0,-4 32,-57 70,-115 63,-96 120,-201 120,-222 0,-5 16,-48 36,-98 50,-123 59,-157 88,-332 61,-363 6,-776 -143,-1069 -17,-34 -31,-73 -31,-86 0,-57 206,-301 364,-430 47,-39 66,-46 66,-23 0,8 3,16 8,18 21,9 152,251 152,282 0,8 4,17 9,21 17,10 88,205 124,340 68,251 91,443 84,703 -8,294 -56,546 -156,814 -40,108 -143,318 -167,343 -8,7 -29,43 -48,78 -18,36 -39,71 -45,79 -32,39 -100,128 -126,167 -44,65 -269,290 -357,357 -168,128 -209,156 -289,205 -422,254 -911,370 -1427,338 z"
       id="path1" />
    <path
       d="m 7450,8559 c -154,-11 -412,-59 -515,-96 -38,-13 -110,-38 -160,-54 -104,-34 -320,-139 -415,-202 -79,-51 -87,-75 -38,-114 73,-61 175,-164 266,-270 59,-70 103,-113 114,-113 11,0 61,22 111,49 181,97 316,140 562,181 112,19 154,22 310,17 121,-4 214,-12 285,-26 283,-56 548,-173 765,-338 42,-32 93,-71 113,-86 123,-93 327,-355 430,-553 75,-143 113,-253 157,-456 73,-337 52,-670 -65,-1003 -31,-90 -124,-282 -164,-341 -14,-21 -26,-44 -26,-51 0,-7 -6,-16 -13,-20 -7,-4 -24,-24 -37,-43 -57,-85 -189,-225 -310,-330 -65,-56 -166,-130 -177,-130 -3,0 -21,-12 -40,-26 -55,-42 -273,-142 -401,-184 -163,-53 -310,-80 -482,-87 -345,-14 -661,59 -955,219 -149,82 -205,119 -310,210 -206,178 -352,367 -471,613 -77,159 -125,302 -156,466 -30,164 -33,487 -5,644 30,166 85,334 153,467 19,37 34,76 34,88 0,71 -347,460 -410,460 -35,0 -176,-256 -250,-453 -22,-59 -40,-114 -40,-123 0,-9 -11,-48 -25,-87 -14,-40 -36,-128 -49,-197 -85,-431 -53,-860 99,-1305 59,-173 223,-477 332,-617 26,-33 62,-79 79,-102 57,-74 287,-301 369,-362 105,-80 261,-184 273,-184 6,0 12,-3 14,-7 11,-25 298,-164 428,-206 407,-135 755,-165 1182,-103 272,40 480,106 728,230 128,64 360,209 360,225 0,5 20,21 44,35 99,58 369,327 431,430 11,19 41,60 66,92 78,101 158,237 223,381 231,504 284,1062 155,1603 -32,134 -98,328 -114,334 -8,3 -12,12 -9,20 6,16 -34,116 -47,116 -5,0 -9,8 -9,18 0,21 -77,164 -135,251 -55,83 -214,281 -310,386 -82,91 -283,257 -407,338 -185,120 -318,185 -553,270 -291,105 -644,150 -985,126 z"
       id="path2" />
    <path
       d="m 4501,3399 c -54,-26 -694,-662 -739,-735 -100,-163 -97,-381 8,-533 49,-70 133,-136 219,-173 68,-29 86,-32 176,-33 85,0 111,4 175,28 87,31 177,97 223,163 17,24 33,44 37,44 3,0 25,-25 50,-57 63,-78 169,-146 265,-169 64,-15 90,-16 168,-8 128,14 210,54 298,145 58,59 71,80 99,156 30,84 31,93 25,182 -10,131 -34,209 -84,275 -69,89 -677,694 -721,716 -52,27 -140,26 -199,-1 z"
       id="path3" />
  </g>
</svg>
